# xmcd CD database file
#
# Track frame offsets:
#	150
#	20432
#	37112
#
# Disc length: 763 seconds
#
# Revision: 0
# Processed by: cddbd v1.5PL3 Copyright (c) Steve Scherf et al.
# Submitted via: CDex 1.50
#
DISCID=1e02f903
DTITLE=新島弥生 - 星は泣かない
DYEAR=1992
DGENRE=JPop
TTITLE0=星は泣かない
TTITLE1=赤いピアノ弾いた
TTITLE2=星は泣かない (ｶﾗｵｹ)
EXTD=YEAR: 1992/01/08
EXTT0=
EXTT1=
EXTT2=
PLAYORDER=
